<svg xmlns="http://www.w3.org/2000/svg" width="901" height="203" viewBox="0 0 901 203" fill="none">
  <path d="M1 201.344L33.3595 192.705C35.1055 192.239 36.7528 191.461 38.2222 190.409L76.0842 163.303C78.6307 161.48 81.684 160.5 84.8159 160.5H108.17C111.92 160.5 115.534 159.096 118.3 156.563L149.535 127.965C154.531 123.391 161.973 122.733 167.694 126.359L230.929 166.434C236.592 170.023 243.95 169.418 248.951 164.951L273.299 143.202C276.881 140.003 281.777 138.712 286.47 139.73L313.829 145.662C317.775 146.518 321.9 145.746 325.27 143.522L361.281 119.754C366.521 116.296 373.36 116.467 378.421 120.182L399.697 135.803C405.411 139.998 413.282 139.62 418.569 134.897L429.056 125.526C432.772 122.205 437.896 120.947 442.728 122.17L466.651 128.22C471.272 129.389 476.174 128.292 479.855 125.264L508.181 101.975C510.661 99.9358 513.731 98.7462 516.938 98.5815L549.218 96.9231C551.057 96.8286 552.898 97.0736 554.648 97.6458L581.404 106.392C587.205 108.289 593.578 106.481 597.519 101.82L623.881 70.6428C628.116 65.6337 635.115 63.9578 641.16 66.5053L654.551 72.1486C690.231 87.1849 731.385 80.273 760.195 54.4054L776.448 39.8123C781.947 34.8752 790.222 34.6785 795.949 39.3487L816.879 56.4169C821.249 59.9803 827.248 60.7922 832.408 58.5185L860.746 46.0309C862.886 45.0881 864.775 43.6582 866.264 41.8554L900 1" stroke="url(#paint0_linear_78_217)" stroke-width="2" stroke-linecap="round" stroke-linejoin="round"/>
  <defs>
    <linearGradient id="paint0_linear_78_217" x1="408.224" y1="301.516" x2="501.618" y2="-78.1543" gradientUnits="userSpaceOnUse">
      <stop stop-color="#45AFEE" stop-opacity="0.01"/>
      <stop offset="0.0375866" stop-color="#43B1EC" stop-opacity="0.615533"/>
      <stop offset="0.0805049" stop-color="#41B3E9" stop-opacity="0.767526"/>
      <stop offset="0.146149" stop-color="#3EB7E5"/>
      <stop offset="0.747659" stop-color="#23DBBD"/>
      <stop offset="0.842081" stop-color="#1EE0B7" stop-opacity="0.852977"/>
      <stop offset="0.896184" stop-color="#1CE4B3" stop-opacity="0.768733"/>
      <stop offset="0.927591" stop-color="#1BE5B1" stop-opacity="0.144475"/>
      <stop offset="1" stop-color="#17EAAC" stop-opacity="0.01"/>
    </linearGradient>
  </defs>
</svg>

