<svg xmlns="http://www.w3.org/2000/svg" width="903" height="210" viewBox="0 0 903 210" fill="none">
  <path d="M2 199L33.871 206.752C37.1906 207.56 40.6863 207.21 43.78 205.761L81.9759 187.866C83.9676 186.933 86.1401 186.449 88.3396 186.449H118.431C122.024 186.449 125.497 185.16 128.22 182.815L158.016 157.154C161.762 153.928 166.856 152.754 171.635 154.017L192.87 159.626C196.789 160.661 200.96 160.066 204.433 157.977L232.107 141.329C236.412 138.739 241.728 138.477 246.268 140.63L269.406 151.607C275.631 154.559 283.066 152.892 287.434 147.565L308.821 121.482C312.05 117.545 317.056 115.514 322.115 116.089L373.473 121.929C376.734 122.299 380.027 121.59 382.846 119.911L433.701 89.6096C435.222 88.7035 436.891 88.0737 438.631 87.7494L545.401 67.8569C548.396 67.2989 551.49 67.6661 554.271 68.9098L587.051 83.5674C593.221 86.3265 600.475 84.618 604.765 79.3951L634.436 43.2742C637.873 39.0892 643.3 37.0823 648.633 38.0235L708.475 48.5839C713.48 49.467 718.591 47.7563 722.056 44.0386L743.431 21.1017C747.433 16.8074 753.572 15.242 759.142 17.0958L781.197 24.4369C784.917 25.675 788.974 25.4076 792.499 23.6918L820.782 9.92605C823.528 8.58918 826.618 8.12279 829.637 8.58922L861.407 13.4979C863.768 13.8627 866.182 13.6583 868.448 12.9017L901 2.03271" stroke="url(#paint0_linear_78_221)" stroke-width="4" stroke-linecap="round" stroke-linejoin="round"/>
  <defs>
    <linearGradient id="paint0_linear_78_221" x1="939" y1="18" x2="794.806" y2="511.539" gradientUnits="userSpaceOnUse">
      <stop stop-color="#FF7144" stop-opacity="0.01"/>
      <stop offset="0.0949252" stop-color="#FF8979"/>
      <stop offset="0.239409" stop-color="#FF4DCA"/>
      <stop offset="0.442535" stop-color="#E930FF"/>
      <stop offset="0.940665" stop-color="#E44D88"/>
      <stop offset="0.970958" stop-color="#E34E81" stop-opacity="0.594203"/>
      <stop offset="1" stop-color="#E3507A" stop-opacity="0.01"/>
    </linearGradient>
  </defs>
</svg>