<svg xmlns="http://www.w3.org/2000/svg" width="815" height="158" viewBox="0 0 815 158" fill="none">
  <path d="M1 157L34.7898 142.885C38.4471 141.358 42.5604 141.339 46.231 142.835L74.3412 154.287C78.5511 156.002 83.3116 155.716 87.2853 153.508L111.591 140.005C115.055 138.08 119.141 137.605 122.955 138.683L148.624 145.938C153.803 147.402 159.37 145.978 163.212 142.207L186.41 119.433C191.428 114.506 199.196 113.728 205.093 117.56L224.561 130.215C230.614 134.149 238.61 133.214 243.592 127.989L268.35 102.023C272.897 97.2546 280.022 96.0111 285.915 98.9574L302.975 107.488C307.375 109.688 312.574 109.59 316.888 107.228L342.089 93.4272C347.957 90.2139 355.244 91.2748 359.951 96.0279L391.506 127.886C398.04 134.483 408.937 133.619 414.35 126.075L465.149 55.2772C466.689 53.1305 468.769 51.4288 471.178 50.3441L576.573 2.89333C580.644 1.06056 585.32 1.13635 589.329 3.10011L681 48L712.815 60.7261C727.275 66.5101 743.68 64.5848 756.408 55.61L814 15" stroke="url(#paint0_linear_78_220)" stroke-width="2" stroke-linecap="round" stroke-linejoin="round"/>
  <defs>
    <linearGradient id="paint0_linear_78_220" x1="370.373" y1="229.426" x2="422.356" y2="-44.5388" gradientUnits="userSpaceOnUse">
      <stop stop-color="#C16364" stop-opacity="0.01"/>
      <stop offset="0.0498344" stop-color="#C16C67" stop-opacity="0.558792"/>
      <stop offset="0.0884448" stop-color="#C17168"/>
      <stop offset="0.124227" stop-color="#C1756A"/>
      <stop offset="0.836363" stop-color="#C1DE8B"/>
      <stop offset="0.871495" stop-color="#C1E98F"/>
      <stop offset="0.929393" stop-color="#C1EF91" stop-opacity="0.0925328"/>
      <stop offset="1" stop-color="#C1F793" stop-opacity="0.01"/>
    </linearGradient>
  </defs>
</svg>